# xmcd CD database file
#
# Track frame offsets:
#	182
#	12015
#	22180
#	35675
#	49647
#	69225
#	81445
#	94825
#	110220
#	125152
#	138830
#	151577
#	166912
#	182665
#	196212
#	213417
#	231015
#
# Disc length: 3406 seconds
#
# Revision: 0
# Processed by: cddbd v1.5.1PL2 Copyright (c) Steve Scherf et al.
# Submitted via: CDex 1.51
#
DISCID=e20d4c11
DTITLE=Various Artist - JBS COLLECTION POPULAR HEROES
DYEAR=1900
DGENRE=Jazz
TTITLE0=B.B.King - Paying The Cost To Be The Boss
TTITLE1=Nina Simone - Work Song
TTITLE2=Miles Davis - Dexterity
TTITLE3=Miles Davis - Moose The Mooche
TTITLE4=B.B.King - Sweet Sixteen
TTITLE5=Nina Simone - A'int no use
TTITLE6=Miles Davis - Yardbird Suite
TTITLE7=Miles Davis - How Deep Is The Ocean
TTITLE8=B.B.King - B.B.'s Boogie
TTITLE9=Miles Davis - Ornithology
TTITLE10=Miles Davis - Don't Blame Me
TTITLE11=NIna  Simone - A Little Sugar In My Bowl
TTITLE12=The Letter - B.B. King
TTITLE13=Miles Davis - Scrapple From The Apple
TTITLE14=It Might As Well Be Spring
TTITLE15=B.B. King - Evil Child
TTITLE16=Nina Simone - After You've Gone
EXTD=
EXTT0=
EXTT1=
EXTT2=
EXTT3=
EXTT4=
EXTT5=
EXTT6=
EXTT7=
EXTT8=
EXTT9=
EXTT10=
EXTT11=
EXTT12=
EXTT13=
EXTT14=
EXTT15=
EXTT16=
PLAYORDER=
